<mxfile host="app.diagrams.net" modified="2021-08-13T16:56:07.953Z" agent="5.0 (Windows NT 10.0; Win64; x64) AppleWebKit/537.36 (KHTML, like Gecko) Chrome/92.0.4515.131 Safari/537.36" etag="e2EtWEur_4QahPJXJSVm" version="14.9.6" type="github" pages="2">
  <diagram id="3OHGjnIqw4h_e7zuTHIl" name="Casos de Uso">
    <mxGraphModel dx="868" dy="450" grid="0" gridSize="10" guides="1" tooltips="1" connect="1" arrows="1" fold="1" page="0" pageScale="1" pageWidth="827" pageHeight="1169" background="none" math="0" shadow="0">
      <root>
        <mxCell id="0" />
        <mxCell id="1" parent="0" />
        <mxCell id="7emyw13UKm9sanoA73Oi-5" value="" style="rounded=0;whiteSpace=wrap;html=1;" vertex="1" parent="1">
          <mxGeometry x="252" y="175" width="252" height="252" as="geometry" />
        </mxCell>
        <mxCell id="7emyw13UKm9sanoA73Oi-10" style="rounded=0;orthogonalLoop=1;jettySize=auto;html=1;exitX=0.5;exitY=0.5;exitDx=0;exitDy=0;exitPerimeter=0;entryX=0;entryY=0.5;entryDx=0;entryDy=0;endArrow=none;endFill=0;" edge="1" parent="1" source="7emyw13UKm9sanoA73Oi-6" target="7emyw13UKm9sanoA73Oi-8">
          <mxGeometry relative="1" as="geometry" />
        </mxCell>
        <mxCell id="7emyw13UKm9sanoA73Oi-6" value="FuncionÃ¡rio(s)" style="shape=umlActor;verticalLabelPosition=bottom;verticalAlign=top;html=1;outlineConnect=0;" vertex="1" parent="1">
          <mxGeometry x="156" y="198" width="30" height="60" as="geometry" />
        </mxCell>
        <mxCell id="7emyw13UKm9sanoA73Oi-13" style="edgeStyle=none;rounded=0;orthogonalLoop=1;jettySize=auto;html=1;entryX=0;entryY=0.5;entryDx=0;entryDy=0;endArrow=none;endFill=0;dashed=1;startArrow=openThin;startFill=0;" edge="1" parent="1" source="7emyw13UKm9sanoA73Oi-8" target="7emyw13UKm9sanoA73Oi-12">
          <mxGeometry relative="1" as="geometry" />
        </mxCell>
        <mxCell id="7emyw13UKm9sanoA73Oi-19" value="&lt;font style=&quot;font-size: 8px&quot;&gt;&amp;lt;Include&amp;gt;&lt;/font&gt;" style="edgeLabel;html=1;align=center;verticalAlign=middle;resizable=0;points=[];" vertex="1" connectable="0" parent="7emyw13UKm9sanoA73Oi-13">
          <mxGeometry x="0.3996" y="-1" relative="1" as="geometry">
            <mxPoint x="-16" y="-1" as="offset" />
          </mxGeometry>
        </mxCell>
        <mxCell id="7emyw13UKm9sanoA73Oi-18" style="edgeStyle=none;orthogonalLoop=1;jettySize=auto;html=1;entryX=0.5;entryY=0;entryDx=0;entryDy=0;startArrow=openThin;startFill=0;endArrow=none;endFill=0;dashed=1;strokeColor=none;rounded=0;" edge="1" parent="1" source="7emyw13UKm9sanoA73Oi-8" target="7emyw13UKm9sanoA73Oi-16">
          <mxGeometry relative="1" as="geometry" />
        </mxCell>
        <mxCell id="7emyw13UKm9sanoA73Oi-8" value="&lt;span style=&quot;font-size: 8px&quot;&gt;Loga No Sistema&lt;/span&gt;" style="ellipse;whiteSpace=wrap;html=1;" vertex="1" parent="1">
          <mxGeometry x="263" y="187" width="68" height="34" as="geometry" />
        </mxCell>
        <mxCell id="7emyw13UKm9sanoA73Oi-9" value="PetMed System" style="text;html=1;strokeColor=none;fillColor=none;align=center;verticalAlign=middle;whiteSpace=wrap;rounded=0;" vertex="1" parent="1">
          <mxGeometry x="358" y="144" width="40" height="20" as="geometry" />
        </mxCell>
        <mxCell id="7emyw13UKm9sanoA73Oi-11" value="API" style="shape=umlActor;verticalLabelPosition=bottom;verticalAlign=top;html=1;outlineConnect=0;" vertex="1" parent="1">
          <mxGeometry x="539" y="208" width="30" height="60" as="geometry" />
        </mxCell>
        <mxCell id="7emyw13UKm9sanoA73Oi-14" style="edgeStyle=none;rounded=0;orthogonalLoop=1;jettySize=auto;html=1;exitX=1;exitY=0.5;exitDx=0;exitDy=0;startArrow=none;startFill=0;endArrow=none;endFill=0;entryX=0.5;entryY=0.5;entryDx=0;entryDy=0;entryPerimeter=0;" edge="1" parent="1" source="7emyw13UKm9sanoA73Oi-12" target="7emyw13UKm9sanoA73Oi-11">
          <mxGeometry relative="1" as="geometry" />
        </mxCell>
        <mxCell id="7emyw13UKm9sanoA73Oi-12" value="&lt;span style=&quot;font-size: 8px&quot;&gt;Autenticar&lt;/span&gt;" style="ellipse;whiteSpace=wrap;html=1;" vertex="1" parent="1">
          <mxGeometry x="410" y="187" width="68" height="34" as="geometry" />
        </mxCell>
        <mxCell id="7emyw13UKm9sanoA73Oi-21" style="edgeStyle=none;rounded=0;orthogonalLoop=1;jettySize=auto;html=1;entryX=0.5;entryY=1;entryDx=0;entryDy=0;dashed=1;startArrow=openThin;startFill=0;endArrow=none;endFill=0;" edge="1" parent="1" source="7emyw13UKm9sanoA73Oi-16" target="7emyw13UKm9sanoA73Oi-8">
          <mxGeometry relative="1" as="geometry" />
        </mxCell>
        <mxCell id="7emyw13UKm9sanoA73Oi-22" value="&lt;font style=&quot;font-size: 8px&quot;&gt;&amp;lt;Extend&amp;gt;&lt;/font&gt;" style="edgeLabel;html=1;align=center;verticalAlign=middle;resizable=0;points=[];" vertex="1" connectable="0" parent="7emyw13UKm9sanoA73Oi-21">
          <mxGeometry x="0.2789" y="-1" relative="1" as="geometry">
            <mxPoint x="-1" y="2" as="offset" />
          </mxGeometry>
        </mxCell>
        <mxCell id="7emyw13UKm9sanoA73Oi-25" style="edgeStyle=none;rounded=0;orthogonalLoop=1;jettySize=auto;html=1;exitX=0.5;exitY=1;exitDx=0;exitDy=0;dashed=1;startArrow=openThin;startFill=0;endArrow=none;endFill=0;" edge="1" parent="1" source="7emyw13UKm9sanoA73Oi-16" target="7emyw13UKm9sanoA73Oi-23">
          <mxGeometry relative="1" as="geometry" />
        </mxCell>
        <mxCell id="7emyw13UKm9sanoA73Oi-45" style="edgeStyle=none;rounded=0;orthogonalLoop=1;jettySize=auto;html=1;exitX=1;exitY=0.5;exitDx=0;exitDy=0;entryX=0;entryY=0.5;entryDx=0;entryDy=0;startArrow=none;startFill=0;endArrow=none;endFill=0;" edge="1" parent="1" source="7emyw13UKm9sanoA73Oi-16" target="7emyw13UKm9sanoA73Oi-27">
          <mxGeometry relative="1" as="geometry" />
        </mxCell>
        <mxCell id="7emyw13UKm9sanoA73Oi-16" value="&lt;span style=&quot;font-size: 8px&quot;&gt;Cadastrar Pet&lt;/span&gt;" style="ellipse;whiteSpace=wrap;html=1;" vertex="1" parent="1">
          <mxGeometry x="263" y="263" width="68" height="34" as="geometry" />
        </mxCell>
        <mxCell id="7emyw13UKm9sanoA73Oi-29" style="edgeStyle=none;rounded=0;orthogonalLoop=1;jettySize=auto;html=1;exitX=1;exitY=0.5;exitDx=0;exitDy=0;dashed=1;startArrow=openThin;startFill=0;endArrow=none;endFill=0;" edge="1" parent="1" source="7emyw13UKm9sanoA73Oi-23" target="7emyw13UKm9sanoA73Oi-27">
          <mxGeometry relative="1" as="geometry" />
        </mxCell>
        <mxCell id="7emyw13UKm9sanoA73Oi-23" value="&lt;span style=&quot;font-size: 8px&quot;&gt;Cadastrar Dono&lt;/span&gt;" style="ellipse;whiteSpace=wrap;html=1;" vertex="1" parent="1">
          <mxGeometry x="263" y="335" width="68" height="34" as="geometry" />
        </mxCell>
        <mxCell id="7emyw13UKm9sanoA73Oi-26" value="&lt;font style=&quot;font-size: 8px&quot;&gt;&amp;lt;Extend&amp;gt;&lt;/font&gt;" style="edgeLabel;html=1;align=center;verticalAlign=middle;resizable=0;points=[];" vertex="1" connectable="0" parent="1">
          <mxGeometry x="296.99857142857144" y="316" as="geometry" />
        </mxCell>
        <mxCell id="7emyw13UKm9sanoA73Oi-42" style="edgeStyle=none;rounded=0;orthogonalLoop=1;jettySize=auto;html=1;exitX=1;exitY=0.5;exitDx=0;exitDy=0;entryX=0.5;entryY=0.5;entryDx=0;entryDy=0;entryPerimeter=0;startArrow=openThin;startFill=0;endArrow=none;endFill=0;" edge="1" parent="1" source="7emyw13UKm9sanoA73Oi-27" target="7emyw13UKm9sanoA73Oi-11">
          <mxGeometry relative="1" as="geometry" />
        </mxCell>
        <mxCell id="7emyw13UKm9sanoA73Oi-27" value="&lt;span style=&quot;font-size: 8px&quot;&gt;Cadastrar&lt;/span&gt;" style="ellipse;whiteSpace=wrap;html=1;" vertex="1" parent="1">
          <mxGeometry x="410" y="263" width="68" height="34" as="geometry" />
        </mxCell>
        <mxCell id="7emyw13UKm9sanoA73Oi-30" value="Dono" style="shape=umlActor;verticalLabelPosition=bottom;verticalAlign=top;html=1;outlineConnect=0;" vertex="1" parent="1">
          <mxGeometry x="156" y="483" width="30" height="60" as="geometry" />
        </mxCell>
        <mxCell id="7emyw13UKm9sanoA73Oi-31" value="" style="rounded=0;whiteSpace=wrap;html=1;" vertex="1" parent="1">
          <mxGeometry x="252" y="456" width="252" height="252" as="geometry" />
        </mxCell>
        <mxCell id="7emyw13UKm9sanoA73Oi-32" style="rounded=0;orthogonalLoop=1;jettySize=auto;html=1;exitX=0.5;exitY=0.5;exitDx=0;exitDy=0;exitPerimeter=0;entryX=0;entryY=0.5;entryDx=0;entryDy=0;endArrow=none;endFill=0;" edge="1" parent="1" target="7emyw13UKm9sanoA73Oi-33">
          <mxGeometry relative="1" as="geometry">
            <mxPoint x="171" y="514" as="sourcePoint" />
          </mxGeometry>
        </mxCell>
        <mxCell id="7emyw13UKm9sanoA73Oi-40" value="" style="edgeStyle=none;rounded=0;orthogonalLoop=1;jettySize=auto;html=1;dashed=1;startArrow=openThin;startFill=0;endArrow=none;endFill=0;" edge="1" parent="1" source="7emyw13UKm9sanoA73Oi-33" target="7emyw13UKm9sanoA73Oi-39">
          <mxGeometry relative="1" as="geometry" />
        </mxCell>
        <mxCell id="7emyw13UKm9sanoA73Oi-33" value="&lt;span style=&quot;font-size: 8px&quot;&gt;Loga No Sistema&lt;/span&gt;" style="ellipse;whiteSpace=wrap;html=1;" vertex="1" parent="1">
          <mxGeometry x="263" y="473" width="68" height="34" as="geometry" />
        </mxCell>
        <mxCell id="7emyw13UKm9sanoA73Oi-34" style="edgeStyle=none;rounded=0;orthogonalLoop=1;jettySize=auto;html=1;entryX=0;entryY=0.5;entryDx=0;entryDy=0;endArrow=openThin;endFill=0;dashed=1;startArrow=none;startFill=0;" edge="1" parent="1" target="7emyw13UKm9sanoA73Oi-36">
          <mxGeometry relative="1" as="geometry">
            <mxPoint x="331.00000000000045" y="490" as="sourcePoint" />
          </mxGeometry>
        </mxCell>
        <mxCell id="7emyw13UKm9sanoA73Oi-35" value="&lt;font style=&quot;font-size: 8px&quot;&gt;&amp;lt;Include&amp;gt;&lt;/font&gt;" style="edgeLabel;html=1;align=center;verticalAlign=middle;resizable=0;points=[];" vertex="1" connectable="0" parent="7emyw13UKm9sanoA73Oi-34">
          <mxGeometry x="0.3996" y="-1" relative="1" as="geometry">
            <mxPoint x="-16" y="-1" as="offset" />
          </mxGeometry>
        </mxCell>
        <mxCell id="7emyw13UKm9sanoA73Oi-36" value="&lt;span style=&quot;font-size: 8px&quot;&gt;Autenticar&lt;/span&gt;" style="ellipse;whiteSpace=wrap;html=1;" vertex="1" parent="1">
          <mxGeometry x="410" y="473" width="68" height="34" as="geometry" />
        </mxCell>
        <mxCell id="7emyw13UKm9sanoA73Oi-37" value="API" style="shape=umlActor;verticalLabelPosition=bottom;verticalAlign=top;html=1;outlineConnect=0;" vertex="1" parent="1">
          <mxGeometry x="539" y="495" width="30" height="60" as="geometry" />
        </mxCell>
        <mxCell id="7emyw13UKm9sanoA73Oi-38" style="edgeStyle=none;rounded=0;orthogonalLoop=1;jettySize=auto;html=1;exitX=1;exitY=0.5;exitDx=0;exitDy=0;startArrow=none;startFill=0;endArrow=none;endFill=0;entryX=0.5;entryY=0.5;entryDx=0;entryDy=0;entryPerimeter=0;" edge="1" parent="1" target="7emyw13UKm9sanoA73Oi-37">
          <mxGeometry relative="1" as="geometry">
            <mxPoint x="478.00000000000114" y="491" as="sourcePoint" />
          </mxGeometry>
        </mxCell>
        <mxCell id="7emyw13UKm9sanoA73Oi-39" value="&lt;span style=&quot;font-size: 8px&quot;&gt;Lista Consultas&lt;/span&gt;" style="ellipse;whiteSpace=wrap;html=1;" vertex="1" parent="1">
          <mxGeometry x="263" y="543" width="68" height="34" as="geometry" />
        </mxCell>
        <mxCell id="7emyw13UKm9sanoA73Oi-41" value="&lt;font style=&quot;font-size: 8px&quot;&gt;Extend&lt;/font&gt;" style="edgeLabel;html=1;align=center;verticalAlign=middle;resizable=0;points=[];" vertex="1" connectable="0" parent="1">
          <mxGeometry x="297.00000000000045" y="528" as="geometry" />
        </mxCell>
        <mxCell id="7emyw13UKm9sanoA73Oi-44" value="&lt;font style=&quot;font-size: 8px&quot;&gt;&amp;lt;Exntend&amp;gt;&lt;/font&gt;" style="edgeLabel;html=1;align=center;verticalAlign=middle;resizable=0;points=[];" vertex="1" connectable="0" parent="1">
          <mxGeometry x="373.99999999999955" y="324" as="geometry" />
        </mxCell>
        <mxCell id="7emyw13UKm9sanoA73Oi-51" style="edgeStyle=none;rounded=0;orthogonalLoop=1;jettySize=auto;html=1;exitX=1;exitY=0.5;exitDx=0;exitDy=0;entryX=0.5;entryY=0.5;entryDx=0;entryDy=0;entryPerimeter=0;startArrow=none;startFill=0;endArrow=none;endFill=0;" edge="1" parent="1" source="7emyw13UKm9sanoA73Oi-46" target="7emyw13UKm9sanoA73Oi-37">
          <mxGeometry relative="1" as="geometry" />
        </mxCell>
        <mxCell id="7emyw13UKm9sanoA73Oi-46" value="&lt;span style=&quot;font-size: 8px&quot;&gt;Buscar Consultas&lt;/span&gt;" style="ellipse;whiteSpace=wrap;html=1;" vertex="1" parent="1">
          <mxGeometry x="410" y="543" width="68" height="34" as="geometry" />
        </mxCell>
        <mxCell id="7emyw13UKm9sanoA73Oi-48" style="edgeStyle=none;rounded=0;orthogonalLoop=1;jettySize=auto;html=1;entryX=0;entryY=0.5;entryDx=0;entryDy=0;endArrow=openThin;endFill=0;dashed=1;startArrow=none;startFill=0;" edge="1" parent="1">
          <mxGeometry relative="1" as="geometry">
            <mxPoint x="331.00000000000045" y="559.58" as="sourcePoint" />
            <mxPoint x="409.99999999999886" y="559.58" as="targetPoint" />
          </mxGeometry>
        </mxCell>
        <mxCell id="7emyw13UKm9sanoA73Oi-49" value="&lt;font style=&quot;font-size: 8px&quot;&gt;&amp;lt;Include&amp;gt;&lt;/font&gt;" style="edgeLabel;html=1;align=center;verticalAlign=middle;resizable=0;points=[];" vertex="1" connectable="0" parent="7emyw13UKm9sanoA73Oi-48">
          <mxGeometry x="0.3996" y="-1" relative="1" as="geometry">
            <mxPoint x="-16" y="-1" as="offset" />
          </mxGeometry>
        </mxCell>
        <mxCell id="7emyw13UKm9sanoA73Oi-54" style="edgeStyle=none;rounded=0;orthogonalLoop=1;jettySize=auto;html=1;exitX=0.5;exitY=0.5;exitDx=0;exitDy=0;exitPerimeter=0;entryX=0;entryY=0.5;entryDx=0;entryDy=0;startArrow=none;startFill=0;endArrow=none;endFill=0;" edge="1" parent="1" source="7emyw13UKm9sanoA73Oi-52" target="7emyw13UKm9sanoA73Oi-53">
          <mxGeometry relative="1" as="geometry" />
        </mxCell>
        <mxCell id="7emyw13UKm9sanoA73Oi-52" value="Administrador" style="shape=umlActor;verticalLabelPosition=bottom;verticalAlign=top;html=1;outlineConnect=0;" vertex="1" parent="1">
          <mxGeometry x="156" y="610" width="30" height="60" as="geometry" />
        </mxCell>
        <mxCell id="7emyw13UKm9sanoA73Oi-55" style="edgeStyle=none;rounded=0;orthogonalLoop=1;jettySize=auto;html=1;exitX=1;exitY=0.5;exitDx=0;exitDy=0;entryX=0.5;entryY=0.5;entryDx=0;entryDy=0;entryPerimeter=0;startArrow=none;startFill=0;endArrow=none;endFill=0;" edge="1" parent="1" source="7emyw13UKm9sanoA73Oi-53" target="7emyw13UKm9sanoA73Oi-37">
          <mxGeometry relative="1" as="geometry" />
        </mxCell>
        <mxCell id="7emyw13UKm9sanoA73Oi-53" value="&lt;span style=&quot;font-size: 8px&quot;&gt;Cadastra Usuario&lt;/span&gt;" style="ellipse;whiteSpace=wrap;html=1;" vertex="1" parent="1">
          <mxGeometry x="344" y="626" width="68" height="34" as="geometry" />
        </mxCell>
      </root>
    </mxGraphModel>
  </diagram>
  <diagram id="vbDC4pS--AKC0URqTiUC" name="Classes">
    <mxGraphModel dx="868" dy="50" grid="0" gridSize="10" guides="1" tooltips="1" connect="1" arrows="1" fold="1" page="0" pageScale="1" pageWidth="827" pageHeight="1169" math="0" shadow="0">
      <root>
        <mxCell id="IkVfELRHj6XhKTH89dld-0" />
        <mxCell id="IkVfELRHj6XhKTH89dld-1" parent="IkVfELRHj6XhKTH89dld-0" />
        <mxCell id="-K5daKd9MBxr6I_2WEnt-0" value="Colaboradores" style="swimlane;fontStyle=1;align=center;verticalAlign=top;childLayout=stackLayout;horizontal=1;startSize=26;horizontalStack=0;resizeParent=1;resizeParentMax=0;resizeLast=0;collapsible=1;marginBottom=0;" vertex="1" parent="IkVfELRHj6XhKTH89dld-1">
          <mxGeometry x="194" y="517" width="160" height="294" as="geometry" />
        </mxCell>
        <mxCell id="-K5daKd9MBxr6I_2WEnt-1" value="+ ID: string" style="text;strokeColor=none;fillColor=none;align=left;verticalAlign=top;spacingLeft=4;spacingRight=4;overflow=hidden;rotatable=0;points=[[0,0.5],[1,0.5]];portConstraint=eastwest;" vertex="1" parent="-K5daKd9MBxr6I_2WEnt-0">
          <mxGeometry y="26" width="160" height="26" as="geometry" />
        </mxCell>
        <mxCell id="-K5daKd9MBxr6I_2WEnt-5" value="+ Senha: string" style="text;strokeColor=none;fillColor=none;align=left;verticalAlign=top;spacingLeft=4;spacingRight=4;overflow=hidden;rotatable=0;points=[[0,0.5],[1,0.5]];portConstraint=eastwest;" vertex="1" parent="-K5daKd9MBxr6I_2WEnt-0">
          <mxGeometry y="52" width="160" height="26" as="geometry" />
        </mxCell>
        <mxCell id="-K5daKd9MBxr6I_2WEnt-4" value="+ Nome: string" style="text;strokeColor=none;fillColor=none;align=left;verticalAlign=top;spacingLeft=4;spacingRight=4;overflow=hidden;rotatable=0;points=[[0,0.5],[1,0.5]];portConstraint=eastwest;" vertex="1" parent="-K5daKd9MBxr6I_2WEnt-0">
          <mxGeometry y="78" width="160" height="26" as="geometry" />
        </mxCell>
        <mxCell id="-K5daKd9MBxr6I_2WEnt-6" value="+ Cargo: string" style="text;strokeColor=none;fillColor=none;align=left;verticalAlign=top;spacingLeft=4;spacingRight=4;overflow=hidden;rotatable=0;points=[[0,0.5],[1,0.5]];portConstraint=eastwest;" vertex="1" parent="-K5daKd9MBxr6I_2WEnt-0">
          <mxGeometry y="104" width="160" height="26" as="geometry" />
        </mxCell>
        <mxCell id="-K5daKd9MBxr6I_2WEnt-7" value="+ Ramal: int" style="text;strokeColor=none;fillColor=none;align=left;verticalAlign=top;spacingLeft=4;spacingRight=4;overflow=hidden;rotatable=0;points=[[0,0.5],[1,0.5]];portConstraint=eastwest;" vertex="1" parent="-K5daKd9MBxr6I_2WEnt-0">
          <mxGeometry y="130" width="160" height="26" as="geometry" />
        </mxCell>
        <mxCell id="-K5daKd9MBxr6I_2WEnt-2" value="" style="line;strokeWidth=1;fillColor=none;align=left;verticalAlign=middle;spacingTop=-1;spacingLeft=3;spacingRight=3;rotatable=0;labelPosition=right;points=[];portConstraint=eastwest;" vertex="1" parent="-K5daKd9MBxr6I_2WEnt-0">
          <mxGeometry y="156" width="160" height="8" as="geometry" />
        </mxCell>
        <mxCell id="-K5daKd9MBxr6I_2WEnt-3" value="+ ListarTodos(): &lt;Colaboradores&gt;" style="text;strokeColor=none;fillColor=none;align=left;verticalAlign=top;spacingLeft=4;spacingRight=4;overflow=hidden;rotatable=0;points=[[0,0.5],[1,0.5]];portConstraint=eastwest;" vertex="1" parent="-K5daKd9MBxr6I_2WEnt-0">
          <mxGeometry y="164" width="160" height="26" as="geometry" />
        </mxCell>
        <mxCell id="-K5daKd9MBxr6I_2WEnt-9" value="+ Deletar(id): void" style="text;strokeColor=none;fillColor=none;align=left;verticalAlign=top;spacingLeft=4;spacingRight=4;overflow=hidden;rotatable=0;points=[[0,0.5],[1,0.5]];portConstraint=eastwest;" vertex="1" parent="-K5daKd9MBxr6I_2WEnt-0">
          <mxGeometry y="190" width="160" height="26" as="geometry" />
        </mxCell>
        <mxCell id="-K5daKd9MBxr6I_2WEnt-10" value="+ Atualizar(id): void" style="text;strokeColor=none;fillColor=none;align=left;verticalAlign=top;spacingLeft=4;spacingRight=4;overflow=hidden;rotatable=0;points=[[0,0.5],[1,0.5]];portConstraint=eastwest;" vertex="1" parent="-K5daKd9MBxr6I_2WEnt-0">
          <mxGeometry y="216" width="160" height="26" as="geometry" />
        </mxCell>
        <mxCell id="-K5daKd9MBxr6I_2WEnt-11" value="+ ListarUm(id): Colaborador" style="text;strokeColor=none;fillColor=none;align=left;verticalAlign=top;spacingLeft=4;spacingRight=4;overflow=hidden;rotatable=0;points=[[0,0.5],[1,0.5]];portConstraint=eastwest;" vertex="1" parent="-K5daKd9MBxr6I_2WEnt-0">
          <mxGeometry y="242" width="160" height="26" as="geometry" />
        </mxCell>
        <mxCell id="-K5daKd9MBxr6I_2WEnt-12" value="+ Buscar(id): Colaborador" style="text;strokeColor=none;fillColor=none;align=left;verticalAlign=top;spacingLeft=4;spacingRight=4;overflow=hidden;rotatable=0;points=[[0,0.5],[1,0.5]];portConstraint=eastwest;" vertex="1" parent="-K5daKd9MBxr6I_2WEnt-0">
          <mxGeometry y="268" width="160" height="26" as="geometry" />
        </mxCell>
        <mxCell id="-K5daKd9MBxr6I_2WEnt-14" value="Consultas" style="swimlane;fontStyle=1;align=center;verticalAlign=top;childLayout=stackLayout;horizontal=1;startSize=26;horizontalStack=0;resizeParent=1;resizeParentMax=0;resizeLast=0;collapsible=1;marginBottom=0;" vertex="1" parent="IkVfELRHj6XhKTH89dld-1">
          <mxGeometry x="475" y="517" width="160" height="190" as="geometry" />
        </mxCell>
        <mxCell id="-K5daKd9MBxr6I_2WEnt-15" value="+ ID: string" style="text;strokeColor=none;fillColor=none;align=left;verticalAlign=top;spacingLeft=4;spacingRight=4;overflow=hidden;rotatable=0;points=[[0,0.5],[1,0.5]];portConstraint=eastwest;" vertex="1" parent="-K5daKd9MBxr6I_2WEnt-14">
          <mxGeometry y="26" width="160" height="26" as="geometry" />
        </mxCell>
        <mxCell id="-K5daKd9MBxr6I_2WEnt-18" value="+ NomePaciente: string" style="text;strokeColor=none;fillColor=none;align=left;verticalAlign=top;spacingLeft=4;spacingRight=4;overflow=hidden;rotatable=0;points=[[0,0.5],[1,0.5]];portConstraint=eastwest;" vertex="1" parent="-K5daKd9MBxr6I_2WEnt-14">
          <mxGeometry y="52" width="160" height="26" as="geometry" />
        </mxCell>
        <mxCell id="-K5daKd9MBxr6I_2WEnt-19" value="+ Raca: string" style="text;strokeColor=none;fillColor=none;align=left;verticalAlign=top;spacingLeft=4;spacingRight=4;overflow=hidden;rotatable=0;points=[[0,0.5],[1,0.5]];portConstraint=eastwest;" vertex="1" parent="-K5daKd9MBxr6I_2WEnt-14">
          <mxGeometry y="78" width="160" height="26" as="geometry" />
        </mxCell>
        <mxCell id="-K5daKd9MBxr6I_2WEnt-20" value="+ Dono: string" style="text;strokeColor=none;fillColor=none;align=left;verticalAlign=top;spacingLeft=4;spacingRight=4;overflow=hidden;rotatable=0;points=[[0,0.5],[1,0.5]];portConstraint=eastwest;" vertex="1" parent="-K5daKd9MBxr6I_2WEnt-14">
          <mxGeometry y="104" width="160" height="26" as="geometry" />
        </mxCell>
        <mxCell id="-K5daKd9MBxr6I_2WEnt-21" value="+ Dono: string" style="text;strokeColor=none;fillColor=none;align=left;verticalAlign=top;spacingLeft=4;spacingRight=4;overflow=hidden;rotatable=0;points=[[0,0.5],[1,0.5]];portConstraint=eastwest;" vertex="1" parent="-K5daKd9MBxr6I_2WEnt-14">
          <mxGeometry y="130" width="160" height="26" as="geometry" />
        </mxCell>
        <mxCell id="-K5daKd9MBxr6I_2WEnt-16" value="" style="line;strokeWidth=1;fillColor=none;align=left;verticalAlign=middle;spacingTop=-1;spacingLeft=3;spacingRight=3;rotatable=0;labelPosition=right;points=[];portConstraint=eastwest;" vertex="1" parent="-K5daKd9MBxr6I_2WEnt-14">
          <mxGeometry y="156" width="160" height="8" as="geometry" />
        </mxCell>
        <mxCell id="-K5daKd9MBxr6I_2WEnt-17" value="+ method(type): type" style="text;strokeColor=none;fillColor=none;align=left;verticalAlign=top;spacingLeft=4;spacingRight=4;overflow=hidden;rotatable=0;points=[[0,0.5],[1,0.5]];portConstraint=eastwest;" vertex="1" parent="-K5daKd9MBxr6I_2WEnt-14">
          <mxGeometry y="164" width="160" height="26" as="geometry" />
        </mxCell>
      </root>
    </mxGraphModel>
  </diagram>
</mxfile>
